<svg class="main-svg" xmlns="http://www.w3.org/2000/svg" xmlns:xlink="http://www.w3.org/1999/xlink" width="800" height="600" style=""><rect x="0" y="0" width="800" height="600" style="fill: rgb(255, 255, 255); fill-opacity: 1;"/><defs id="defs-26095d"><g class="clips"><clipPath class="axesclip" id="clip26095dx"><rect x="80" y="0" width="581" height="600"/></clipPath><clipPath class="axesclip" id="clip26095dy"><rect x="0" y="100" width="800" height="420"/></clipPath><clipPath class="axesclip" id="clip26095dxy"><rect x="80" y="100" width="581" height="420"/></clipPath><clipPath class="plotclip" id="clip26095dxyplot"><rect width="581" height="420"/></clipPath></g></defs><g class="layer-below"><g class="imagelayer"/><g class="shapelayer"/></g><g class="cartesianlayer"><g class="subplot xy"><rect class="bg" style="stroke-width: 0; fill: rgb(255, 255, 255); fill-opacity: 1;" x="80" y="100" width="581" height="420"/><g class="layer-subplot"><g class="shapelayer"/><g class="imagelayer"/></g><g class="gridlayer" transform="translate(80,100)"><path class="ygrid crisp" d="M0,0h581" transform="translate(0,354.59)" style="stroke: rgb(238, 238, 238); stroke-opacity: 1; stroke-width: 1px;"/><path class="ygrid crisp" d="M0,0h581" transform="translate(0,289.18)" style="stroke: rgb(238, 238, 238); stroke-opacity: 1; stroke-width: 1px;"/><path class="ygrid crisp" d="M0,0h581" transform="translate(0,223.77)" style="stroke: rgb(238, 238, 238); stroke-opacity: 1; stroke-width: 1px;"/><path class="ygrid crisp" d="M0,0h581" transform="translate(0,158.36)" style="stroke: rgb(238, 238, 238); stroke-opacity: 1; stroke-width: 1px;"/><path class="ygrid crisp" d="M0,0h581" transform="translate(0,92.95)" style="stroke: rgb(238, 238, 238); stroke-opacity: 1; stroke-width: 1px;"/><path class="ygrid crisp" d="M0,0h581" transform="translate(0,27.54)" style="stroke: rgb(238, 238, 238); stroke-opacity: 1; stroke-width: 1px;"/></g><g class="overgrid"/><g class="zerolinelayer" transform="translate(80,100)"><path class="yzl zl crisp" d="M0,0h581" transform="translate(0,420)" style="stroke: rgb(68, 68, 68); stroke-opacity: 1; stroke-width: 1px;"/></g><g class="overzero"/><g class="plot" transform="translate(80, 100)" clip-path="url(#clip26095dxyplot)"><g class="imagelayer"/><g class="maplayer"/><g class="barlayer"><g class="trace bars" style="opacity: 1;" shape-rendering="crispEdges"><g class="points"><g class="point"><path d="M0,420V416.73H13.51V420Z" style="stroke-width: 0px; fill: rgb(31, 119, 180); fill-opacity: 1;"/></g><g class="point"><path d="M27.02,420V416.73H40.53V420Z" style="stroke-width: 0px; fill: rgb(31, 119, 180); fill-opacity: 1;"/></g><g class="point"><path d="M40.53,420V416.73H54.05V420Z" style="stroke-width: 0px; fill: rgb(31, 119, 180); fill-opacity: 1;"/></g><g class="point"><path d="M67.56,420V416.73H81.07V420Z" style="stroke-width: 0px; fill: rgb(31, 119, 180); fill-opacity: 1;"/></g><g class="point"><path d="M81.07,420V403.65H94.58V420Z" style="stroke-width: 0px; fill: rgb(31, 119, 180); fill-opacity: 1;"/></g><g class="point"><path d="M94.58,420V390.57H108.09V420Z" style="stroke-width: 0px; fill: rgb(31, 119, 180); fill-opacity: 1;"/></g><g class="point"><path d="M108.09,420V403.65H121.6V420Z" style="stroke-width: 0px; fill: rgb(31, 119, 180); fill-opacity: 1;"/></g><g class="point"><path d="M121.6,420V370.94H135.12V420Z" style="stroke-width: 0px; fill: rgb(31, 119, 180); fill-opacity: 1;"/></g><g class="point"><path d="M135.12,420V393.84H148.63V420Z" style="stroke-width: 0px; fill: rgb(31, 119, 180); fill-opacity: 1;"/></g><g class="point"><path d="M148.63,420V361.13H162.14V420Z" style="stroke-width: 0px; fill: rgb(31, 119, 180); fill-opacity: 1;"/></g><g class="point"><path d="M162.14,420V321.89H175.65V420Z" style="stroke-width: 0px; fill: rgb(31, 119, 180); fill-opacity: 1;"/></g><g class="point"><path d="M175.65,420V321.89H189.16V420Z" style="stroke-width: 0px; fill: rgb(31, 119, 180); fill-opacity: 1;"/></g><g class="point"><path d="M189.16,420V223.77H202.67V420Z" style="stroke-width: 0px; fill: rgb(31, 119, 180); fill-opacity: 1;"/></g><g class="point"><path d="M202.67,420V276.1H216.19V420Z" style="stroke-width: 0px; fill: rgb(31, 119, 180); fill-opacity: 1;"/></g><g class="point"><path d="M216.19,420V220.5H229.7V420Z" style="stroke-width: 0px; fill: rgb(31, 119, 180); fill-opacity: 1;"/></g><g class="point"><path d="M229.7,420V158.36H243.21V420Z" style="stroke-width: 0px; fill: rgb(31, 119, 180); fill-opacity: 1;"/></g><g class="point"><path d="M243.21,420V135.47H256.72V420Z" style="stroke-width: 0px; fill: rgb(31, 119, 180); fill-opacity: 1;"/></g><g class="point"><path d="M256.72,420V96.22H270.23V420Z" style="stroke-width: 0px; fill: rgb(31, 119, 180); fill-opacity: 1;"/></g><g class="point"><path d="M270.23,420V83.14H283.74V420Z" style="stroke-width: 0px; fill: rgb(31, 119, 180); fill-opacity: 1;"/></g><g class="point"><path d="M283.74,420V21H297.26V420Z" style="stroke-width: 0px; fill: rgb(31, 119, 180); fill-opacity: 1;"/></g><g class="point"><path d="M297.26,420V66.79H310.77V420Z" style="stroke-width: 0px; fill: rgb(31, 119, 180); fill-opacity: 1;"/></g><g class="point"><path d="M310.77,420V109.3H324.28V420Z" style="stroke-width: 0px; fill: rgb(31, 119, 180); fill-opacity: 1;"/></g><g class="point"><path d="M324.28,420V102.76H337.79V420Z" style="stroke-width: 0px; fill: rgb(31, 119, 180); fill-opacity: 1;"/></g><g class="point"><path d="M337.79,420V164.9H351.3V420Z" style="stroke-width: 0px; fill: rgb(31, 119, 180); fill-opacity: 1;"/></g><g class="point"><path d="M351.3,420V220.5H364.81V420Z" style="stroke-width: 0px; fill: rgb(31, 119, 180); fill-opacity: 1;"/></g><g class="point"><path d="M364.81,420V285.91H378.33V420Z" style="stroke-width: 0px; fill: rgb(31, 119, 180); fill-opacity: 1;"/></g><g class="point"><path d="M378.33,420V259.75H391.84V420Z" style="stroke-width: 0px; fill: rgb(31, 119, 180); fill-opacity: 1;"/></g><g class="point"><path d="M391.84,420V325.16H405.35V420Z" style="stroke-width: 0px; fill: rgb(31, 119, 180); fill-opacity: 1;"/></g><g class="point"><path d="M405.35,420V325.16H418.86V420Z" style="stroke-width: 0px; fill: rgb(31, 119, 180); fill-opacity: 1;"/></g><g class="point"><path d="M418.86,420V351.32H432.37V420Z" style="stroke-width: 0px; fill: rgb(31, 119, 180); fill-opacity: 1;"/></g><g class="point"><path d="M432.37,420V370.94H445.88V420Z" style="stroke-width: 0px; fill: rgb(31, 119, 180); fill-opacity: 1;"/></g><g class="point"><path d="M445.88,420V397.11H459.4V420Z" style="stroke-width: 0px; fill: rgb(31, 119, 180); fill-opacity: 1;"/></g><g class="point"><path d="M459.4,420V380.75H472.91V420Z" style="stroke-width: 0px; fill: rgb(31, 119, 180); fill-opacity: 1;"/></g><g class="point"><path d="M472.91,420V410.19H486.42V420Z" style="stroke-width: 0px; fill: rgb(31, 119, 180); fill-opacity: 1;"/></g><g class="point"><path d="M486.42,420V416.73H499.93V420Z" style="stroke-width: 0px; fill: rgb(31, 119, 180); fill-opacity: 1;"/></g><g class="point"><path d="M499.93,420V413.46H513.44V420Z" style="stroke-width: 0px; fill: rgb(31, 119, 180); fill-opacity: 1;"/></g><g class="point"><path d="M513.44,420V400.38H526.95V420Z" style="stroke-width: 0px; fill: rgb(31, 119, 180); fill-opacity: 1;"/></g><g class="point"><path d="M526.95,420V410.19H540.47V420Z" style="stroke-width: 0px; fill: rgb(31, 119, 180); fill-opacity: 1;"/></g><g class="point"><path d="M540.47,420V416.73H553.98V420Z" style="stroke-width: 0px; fill: rgb(31, 119, 180); fill-opacity: 1;"/></g><g class="point"><path d="M553.98,420V416.73H567.49V420Z" style="stroke-width: 0px; fill: rgb(31, 119, 180); fill-opacity: 1;"/></g><g class="point"><path d="M567.49,420V416.73H581V420Z" style="stroke-width: 0px; fill: rgb(31, 119, 180); fill-opacity: 1;"/></g></g></g></g><g class="boxlayer"/><g class="scatterlayer"><g class="trace scatter trace0624fc" style="stroke-miterlimit: 2; opacity: 1;"><path class="js-line" style="vector-effect: non-scaling-stroke; fill: none; stroke: rgb(255, 127, 14); stroke-opacity: 1; stroke-width: 2px; opacity: 1;" d="M0,419.72L31.88,418.77L49.36,417.46L68.56,414.66L89.13,408.96L101.47,403.49L101.47,403.49L103.87,402.2L114.16,395.69L115.18,394.94L123.75,387.99L125.13,386.75L135.07,376.6L138.15,373.02L148.44,359.5L148.78,359.01L159.06,342.87L160.78,339.93L171.4,320.13L171.4,320.13L173.12,316.69L185.8,289.27L185.8,289.27L186.49,287.69L203.63,246.05L203.63,246.05L203.97,245.18L239.62,156.53L239.62,156.53L239.97,155.76L250.59,133.56L250.59,133.56L250.94,132.91L259.16,118.47L259.16,118.47L259.51,117.93L267.05,107.29L267.05,107.29L267.39,106.87L273.9,99.94L274.25,99.63L280.42,95.16L280.42,95.16L280.76,94.97L285.9,92.88L285.9,92.88L286.25,92.79L291.04,92.22L291.04,92.22L291.39,92.23L296.87,93.22L296.87,93.22L297.22,93.34L302.7,96.06L302.7,96.06L303.04,96.28L308.53,100.68L308.53,100.68L308.87,101.01L315.38,108.31L315.73,108.75L323.61,120.34L323.61,120.34L323.95,120.9L332.52,136.48L332.87,137.15L344.87,163.08L344.87,163.08L345.21,163.87L362.35,206.05L363.03,207.8L394.23,285.61L394.92,287.19L407.94,315.55L408.29,316.25L418.57,335.92L419.6,337.75L429.88,354.63L429.88,354.63L430.91,356.17L440.17,368.95L441.54,370.67L451.48,381.89L454.56,384.94L465.53,394.27L466.91,395.28L475.48,400.9L479.93,403.38L480.62,403.73L493.3,409.26L515.93,415.2L518.33,415.62L529.3,417.14L534.44,417.67L547.12,418.63L560.84,419.25L571.12,419.53"/><g class="points"/></g></g></g><g class="overplot"/><path class="xlines crisp" style="fill: none; stroke-width: 1px; stroke: rgb(0, 0, 0); stroke-opacity: 0;" transform="translate(80,100)" d="M-1,420.5h583"/><path class="ylines crisp" style="fill: none; stroke: rgb(0, 0, 0); stroke-opacity: 0;" transform="translate(80,100)" d="M-0.5,-1v421" stroke-width="1px"/><g class="overlines"/><g class="xaxislayer" transform="translate(80,100)"><g class="xtick" data-bb="1531"><text text-anchor="middle" x="0" y="434" style="font-family: TOBESTRIPPEDOpen SansTOBESTRIPPED,verdana,arial,sans-serif; font-size: 12px; fill: rgb(68, 68, 68); fill-opacity: 1; visibility: visible; white-space: pre;" transform="translate(0.28,0)" data-bb="1525">23.3</text></g><g class="xtick" data-bb="1532"><text text-anchor="middle" x="0" y="434" style="font-family: TOBESTRIPPEDOpen SansTOBESTRIPPED,verdana,arial,sans-serif; font-size: 12px; fill: rgb(68, 68, 68); fill-opacity: 1; visibility: visible; white-space: pre;" transform="translate(135.39,0)" data-bb="1526">23.4</text></g><g class="xtick" data-bb="1533"><text text-anchor="middle" x="0" y="434" style="font-family: TOBESTRIPPEDOpen SansTOBESTRIPPED,verdana,arial,sans-serif; font-size: 12px; fill: rgb(68, 68, 68); fill-opacity: 1; visibility: visible; white-space: pre;" transform="translate(270.51,0)" data-bb="1527">23.5</text></g><g class="xtick" data-bb="1534"><text text-anchor="middle" x="0" y="434" style="font-family: TOBESTRIPPEDOpen SansTOBESTRIPPED,verdana,arial,sans-serif; font-size: 12px; fill: rgb(68, 68, 68); fill-opacity: 1; visibility: visible; white-space: pre;" transform="translate(405.63,0)" data-bb="1528">23.6</text></g><g class="xtick" data-bb="1535"><text text-anchor="middle" x="0" y="434" style="font-family: TOBESTRIPPEDOpen SansTOBESTRIPPED,verdana,arial,sans-serif; font-size: 12px; fill: rgb(68, 68, 68); fill-opacity: 1; visibility: visible; white-space: pre;" transform="translate(540.74,0)" data-bb="1529">23.7</text></g></g><g class="yaxislayer" transform="translate(80,100)"><g class="ytick" data-bb="1537"><text text-anchor="end" x="-2" y="6" style="font-family: TOBESTRIPPEDOpen SansTOBESTRIPPED,verdana,arial,sans-serif; font-size: 12px; fill: rgb(68, 68, 68); fill-opacity: 1; visibility: visible; white-space: pre;" transform="translate(0,420)">0</text></g><g class="ytick" data-bb="1538"><text text-anchor="end" x="-2" y="6" style="font-family: TOBESTRIPPEDOpen SansTOBESTRIPPED,verdana,arial,sans-serif; font-size: 12px; fill: rgb(68, 68, 68); fill-opacity: 1; visibility: visible; white-space: pre;" transform="translate(0,354.59)">20</text></g><g class="ytick" data-bb="1539"><text text-anchor="end" x="-2" y="6" style="font-family: TOBESTRIPPEDOpen SansTOBESTRIPPED,verdana,arial,sans-serif; font-size: 12px; fill: rgb(68, 68, 68); fill-opacity: 1; visibility: visible; white-space: pre;" transform="translate(0,289.18)">40</text></g><g class="ytick" data-bb="1540"><text text-anchor="end" x="-2" y="6" style="font-family: TOBESTRIPPEDOpen SansTOBESTRIPPED,verdana,arial,sans-serif; font-size: 12px; fill: rgb(68, 68, 68); fill-opacity: 1; visibility: visible; white-space: pre;" transform="translate(0,223.77)">60</text></g><g class="ytick" data-bb="1541"><text text-anchor="end" x="-2" y="6" style="font-family: TOBESTRIPPEDOpen SansTOBESTRIPPED,verdana,arial,sans-serif; font-size: 12px; fill: rgb(68, 68, 68); fill-opacity: 1; visibility: visible; white-space: pre;" transform="translate(0,158.36)">80</text></g><g class="ytick" data-bb="1542"><text text-anchor="end" x="-2" y="6" style="font-family: TOBESTRIPPEDOpen SansTOBESTRIPPED,verdana,arial,sans-serif; font-size: 12px; fill: rgb(68, 68, 68); fill-opacity: 1; visibility: visible; white-space: pre;" transform="translate(0,92.95)">100</text></g><g class="ytick" data-bb="1543"><text text-anchor="end" x="-2" y="6" style="font-family: TOBESTRIPPEDOpen SansTOBESTRIPPED,verdana,arial,sans-serif; font-size: 12px; fill: rgb(68, 68, 68); fill-opacity: 1; visibility: visible; white-space: pre;" transform="translate(0,27.54)">120</text></g></g><g class="overaxes"/></g></g><g class="ternarylayer"/><g class="geolayer"/><g class="layer-above"><g class="imagelayer"/><g class="shapelayer"/></g><g class="pielayer"/><g class="glimages"/><text class="js-plot-link-container" style="font-family: TOBESTRIPPEDOpen SansTOBESTRIPPED,Arial,sans-serif; font-size: 12px; fill: rgb(68, 68, 68); pointer-events: all; visibility: visible;" y="591" text-anchor="end" x="793"><tspan class="js-link-to-tool"/><tspan class="js-link-spacer"/><tspan class="js-sourcelinks"/></text><defs id="topdefs-26095d"><clipPath id="legend26095d"><rect width="115" height="48" x="0" y="0"/></clipPath></defs><g class="infolayer"><g class="g-gtitle"><text class="gtitle" style="font-family: TOBESTRIPPEDOpen SansTOBESTRIPPED,verdana,arial,sans-serif; font-size: 17px; fill: rgb(68, 68, 68); opacity: 1; font-weight: normal; white-space: pre; visibility: visible;" x="400" y="50" text-anchor="middle">T_PID Histogram</text></g><g class="g-xtitle" data-bb="1530"><text class="xtitle" style="font-family: Courier New,monospace; font-size: 18px; fill: rgb(127, 127, 127); opacity: 1; font-weight: normal; white-space: pre; visibility: visible;" x="370.5" y="584" text-anchor="middle">Temperature</text></g><g class="g-ytitle" data-bb="1536"><text class="ytitle" transform="rotate(-90,34,310) translate(0, 0)" style="font-family: Courier New,monospace; font-size: 18px; fill: rgb(127, 127, 127); opacity: 1; font-weight: normal; white-space: pre; visibility: visible;" x="34" y="310" text-anchor="middle">Count</text></g><g class="legend" pointer-events="all" transform="translate(672.62, 100)"><rect class="bg" shape-rendering="crispEdges" style="stroke: rgb(68, 68, 68); stroke-opacity: 1; fill: rgb(255, 255, 255); fill-opacity: 1; stroke-width: 0px;" width="115" height="48" x="0" y="0"/><g class="scrollbox" transform="translate(0, 0)" clip-path="url(#legend26095d)"><g class="groups"><g class="traces" style="opacity: 1;" transform="translate(0, 14.5)"><g class="layers" style="opacity: 1;"><g class="legendfill"/><g class="legendlines"/><g class="legendsymbols"><g class="legendpoints"><path class="legendbar" d="M6,6H-6V-6H6Z" transform="translate(20,0)" style="stroke-width: 0px; fill: rgb(31, 119, 180); fill-opacity: 1;"/></g></g></g><text class="legendtext user-select-none" x="40" y="4.680000000000001" style="text-anchor: start; font-family: TOBESTRIPPEDOpen SansTOBESTRIPPED,verdana,arial,sans-serif; font-size: 12px; fill: rgb(68, 68, 68); fill-opacity: 1; white-space: pre; visibility: visible;" data-bb="1544">Data</text><rect class="legendtoggle" style="cursor: pointer; fill: rgb(0, 0, 0); fill-opacity: 0;" pointer-events="all" x="0" y="-9.5" width="155" height="19"/></g><g class="traces" style="opacity: 1;" transform="translate(0, 33.5)"><g class="layers" style="opacity: 1;"><g class="legendfill"/><g class="legendlines"><path class="js-line" d="M5,0h30" style="fill: none; stroke: rgb(255, 127, 14); stroke-opacity: 1; stroke-width: 2px;"/></g><g class="legendsymbols"><g class="legendpoints"/></g></g><text class="legendtext user-select-none" x="40" y="4.680000000000001" style="text-anchor: start; font-family: TOBESTRIPPEDOpen SansTOBESTRIPPED,verdana,arial,sans-serif; font-size: 12px; fill: rgb(68, 68, 68); fill-opacity: 1; white-space: pre; visibility: visible;" data-bb="1545">Gaussian Fit</text><rect class="legendtoggle" style="cursor: pointer; fill: rgb(0, 0, 0); fill-opacity: 0;" pointer-events="all" x="0" y="-9.5" width="155" height="19"/></g></g></g><rect class="scrollbar" rx="20" ry="2" width="0" height="0" style="fill: rgb(128, 139, 164); fill-opacity: 1;"/></g></g></svg>